<?xml version="1.0" standalone="no"?>
<!DOCTYPE svg PUBLIC "-//W3C//DTD SVG 20010904//EN"
 "http://www.w3.org/TR/2001/REC-SVG-20010904/DTD/svg10.dtd">
<svg version="1.0" xmlns="http://www.w3.org/2000/svg"
 width="512.000000pt" height="512.000000pt" viewBox="0 0 512.000000 512.000000"
 preserveAspectRatio="xMidYMid meet">

<g transform="translate(0.000000,512.000000) scale(0.100000,-0.100000)"
fill="#000000" stroke="none">
<path d="M2401 5019 c-164 -32 -316 -113 -436 -233 -96 -96 -154 -181 -196
-291 -52 -134 -59 -185 -59 -464 0 -243 1 -255 22 -293 41 -72 130 -104 203
-74 52 22 74 43 96 91 16 35 19 68 19 265 0 168 4 241 15 284 46 177 163 302
338 361 l76 25 928 0 c802 0 937 -2 988 -15 163 -43 298 -169 357 -335 l23
-65 3 -983 c2 -796 0 -982 -10 -976 -7 4 -102 75 -211 157 -110 82 -214 155
-233 163 -25 11 -85 14 -241 14 -234 0 -269 -8 -314 -71 -35 -50 -39 -142 -7
-189 13 -19 39 -45 57 -57 32 -22 44 -23 208 -23 l173 0 333 -249 c237 -178
344 -252 375 -260 79 -22 158 17 193 93 18 39 19 93 19 1196 0 741 -4 1178
-10 1220 -47 296 -249 550 -524 660 -153 61 -125 60 -1179 59 -529 -1 -982 -5
-1006 -10z"/>
<path d="M733 3320 c-301 -45 -572 -262 -677 -541 -57 -152 -56 -129 -56
-1394 l0 -1162 23 -44 c39 -73 133 -109 210 -80 14 5 170 119 348 253 l324
243 905 5 c902 6 905 6 978 28 261 80 465 264 563 507 57 144 59 168 59 831 0
666 -2 686 -62 832 -103 248 -307 426 -575 504 l-78 23 -955 1 c-525 1 -978
-2 -1007 -6z m1907 -340 c190 -30 360 -182 412 -369 16 -60 18 -114 18 -646 0
-640 0 -641 -63 -759 -41 -78 -125 -162 -203 -203 -120 -64 -98 -63 -1080 -63
-649 0 -900 -3 -924 -12 -25 -8 -320 -220 -448 -321 -10 -8 -12 177 -10 979
l3 989 23 59 c74 196 225 320 417 346 91 12 1778 12 1855 0z"/>
<path d="M932 2453 c-18 -9 -45 -32 -60 -51 -23 -30 -27 -45 -27 -101 0 -78
24 -120 86 -151 38 -20 56 -20 617 -18 l579 3 37 29 c89 68 89 204 0 272 l-37
29 -581 2 c-523 3 -584 1 -614 -14z"/>
<path d="M934 1771 c-59 -27 -87 -72 -92 -146 -3 -50 0 -65 20 -94 12 -19 36
-44 51 -55 28 -20 39 -21 367 -21 326 0 340 1 366 21 55 40 69 70 69 142 0 81
-25 124 -89 153 -37 17 -70 19 -346 19 -276 0 -309 -2 -346 -19z"/>
</g>
</svg>
