<svg width="23" height="24" viewBox="0 0 23 24" fill="none" xmlns="http://www.w3.org/2000/svg">
<path d="M0.953992 10.9823L0.953873 10.9821L0.952673 10.9803L0.947282 10.972C0.942439 10.9644 0.93522 10.9528 0.926274 10.9376C0.908366 10.907 0.883644 10.862 0.857256 10.8053C0.804278 10.6917 0.745696 10.5337 0.720849 10.3541C0.696062 10.1749 0.70508 9.97628 0.784733 9.77802C0.864107 9.58046 1.01626 9.37661 1.28846 9.19014L1.28851 9.19011C1.56036 9.00365 1.80522 8.93529 2.01802 8.93249C2.23157 8.92968 2.42004 8.99281 2.57819 9.08044C2.73672 9.16828 2.86292 9.27975 2.94984 9.37005C2.99314 9.41503 3.02624 9.45429 3.04829 9.48198C3.05931 9.49582 3.06753 9.50672 3.07287 9.51397L3.07867 9.52198L3.07992 9.52375L3.08003 9.52391L3.08008 9.52399L3.08012 9.52404L6.72656 14.842L6.81469 14.9705L6.89481 14.8368C7.01887 14.6298 7.15444 14.4258 7.30563 14.2247L7.34879 14.1673L7.30817 14.108L2.2471 6.72823L2.24706 6.72816L2.24705 6.72816L2.24694 6.72798L2.24574 6.72619L2.24035 6.71789C2.23552 6.7103 2.2283 6.6987 2.21937 6.68344C2.20148 6.6529 2.17678 6.60788 2.15042 6.55129C2.09749 6.43769 2.03897 6.27981 2.01417 6.10029C1.98942 5.9212 1.99846 5.72265 2.07808 5.52444C2.15743 5.32693 2.30951 5.12312 2.58154 4.93665L2.58157 4.93663C2.85342 4.75018 3.09828 4.68182 3.31108 4.67902C3.52463 4.6762 3.7131 4.73934 3.87124 4.82697C4.02977 4.9148 4.15598 5.02628 4.2429 5.11658C4.28619 5.16156 4.31929 5.20082 4.34135 5.22851C4.35236 5.24234 4.36059 5.25325 4.36592 5.2605L4.37173 5.26851L4.37297 5.27028L4.37309 5.27044L4.37317 5.27057L9.1335 12.2128L9.19497 12.3024L9.27919 12.2337C9.45583 12.0897 9.63614 11.9453 9.82173 11.8038L9.89737 11.7462L9.84359 11.6678L4.32488 3.61851L4.32484 3.61845L4.32483 3.61844L4.32471 3.61826L4.32352 3.61647L4.31813 3.60817C4.31329 3.60058 4.30608 3.58898 4.29714 3.57372C4.27925 3.54318 4.25455 3.49816 4.22819 3.44157C4.17527 3.32796 4.11675 3.17009 4.09195 2.99057C4.0672 2.81148 4.07624 2.61292 4.15586 2.41472C4.23521 2.21721 4.38729 2.01339 4.65932 1.82693L4.65934 1.82691C4.9312 1.64045 5.17606 1.5721 5.38885 1.56929C5.6024 1.56648 5.79087 1.62962 5.94902 1.71724C6.10755 1.80508 6.23376 1.91656 6.32068 2.00686C6.36397 2.05184 6.39707 2.0911 6.41913 2.11879C6.43014 2.13262 6.43837 2.14353 6.4437 2.15078L6.44951 2.15879L6.45075 2.16055L6.45087 2.16072L6.45095 2.16084L11.9696 10.2086L12.0233 10.287L12.1044 10.2373C12.2496 10.1483 12.3929 10.0684 12.5383 9.98733C12.5939 9.95634 12.6498 9.92519 12.7062 9.89329L12.8011 9.83962L12.7394 9.74969L7.58113 2.22753L7.58109 2.22747L7.58108 2.22747L7.58096 2.22729L7.57977 2.22549L7.57438 2.21719C7.56954 2.20961 7.56233 2.198 7.55339 2.18275C7.5355 2.1522 7.5108 2.10718 7.48443 2.05059C7.4315 1.93698 7.37295 1.7791 7.34811 1.59957C7.32332 1.42048 7.3323 1.22192 7.41183 1.02371C7.49109 0.826205 7.64305 0.622396 7.9149 0.435939C8.18675 0.249482 8.43161 0.181127 8.64441 0.178322C8.85796 0.175508 9.04643 0.238647 9.20458 0.326273C9.36311 0.41411 9.48931 0.525587 9.57623 0.615888C9.61953 0.660865 9.65263 0.700123 9.67468 0.727817C9.6857 0.74165 9.69392 0.752558 9.69926 0.759803L9.70506 0.767817L9.70631 0.769582L9.70642 0.769746L9.70651 0.769872L15.1606 8.7239L15.1606 8.72391L15.9336 9.85171C12.5237 12.2574 12.2148 16.7074 14.1898 19.5878C14.2977 19.7454 14.4221 19.842 14.5513 19.8939C14.6798 19.9456 14.8064 19.9505 14.9156 19.9354C15.0245 19.9205 15.1182 19.8855 15.184 19.8548C15.2172 19.8394 15.2439 19.8248 15.2626 19.8139C15.272 19.8084 15.2794 19.8038 15.2847 19.8004L15.291 19.7963L15.2929 19.795L15.2936 19.7946L15.2938 19.7944L15.2939 19.7944C15.294 19.7943 15.294 19.7943 15.2375 19.7118L15.294 19.7943L15.3766 19.7378L15.32 19.6553C14.1547 17.9556 13.754 16.1575 14.0634 14.4975C14.3728 12.8375 15.3944 11.3047 17.0941 10.1394L17.1485 10.1021L17.1356 10.0374L16.1224 4.96652L16.1227 4.96646L16.1206 4.95899L16.1206 4.95898L16.1205 4.95894L16.1205 4.95886L16.1205 4.95865L16.1199 4.95657L16.1175 4.94698C16.1153 4.93825 16.1122 4.92494 16.1086 4.90763C16.1014 4.87296 16.0923 4.8224 16.0854 4.76035C16.0715 4.63576 16.0665 4.46741 16.1003 4.28929C16.1339 4.11159 16.2058 3.92622 16.3444 3.7637C16.4826 3.60176 16.6915 3.45706 17.0085 3.36705C17.3257 3.2772 17.5796 3.29064 17.7823 3.35597C17.9856 3.42153 18.1441 3.54159 18.2661 3.67516C18.3883 3.80905 18.4724 3.95501 18.526 4.06836C18.5527 4.12482 18.5716 4.17259 18.5836 4.20588C18.5896 4.22251 18.594 4.23548 18.5967 4.24405L18.5997 4.2535L18.6003 4.25557L18.6003 4.25577L18.6002 4.2558L18.6018 4.26038L19.7719 7.73538C20.236 9.11387 20.7316 10.4924 21.3885 11.7977C23.2114 15.4203 22.1225 19.9226 18.6851 22.2807C14.9355 24.8516 9.80957 23.8958 7.23803 20.1469L0.954038 10.9824L0.953992 10.9823Z" fill="#EACCB9" stroke="#2D2D2D" stroke-width="0.2"/>
</svg>
